Hanif_Deep_2_5_grf.mot
version=1
nRows=42
nColumns=19
inDegrees=yes
endheader
time	right_ground_force_vx	right_ground_force_vy	right_ground_force_vz	right_ground_force_px	right_ground_force_py	right_ground_force_pz	right_ground_torque_x	right_ground_torque_y	right_ground_torque_z	left_ground_force_vx	left_ground_force_vy	left_ground_force_vz	left_ground_force_px	left_ground_force_py	left_ground_force_pz	left_ground_torque_x	left_ground_torque_y	left_ground_torque_z
5.075000	-7.077440	287.468000	-10.109100	0.197506	0.000000	-1.446410	-17.270100	5.231610	-0.916628	2.468770	294.240000	9.414560	0.228710	0.000000	-0.968779	19.291400	-7.980260	8.205990
5.080000	-6.805250	284.281000	-10.761400	0.197425	0.000000	-1.445460	-17.348500	5.282760	-0.948531	2.284090	293.141000	9.373890	0.228513	0.000000	-0.968756	19.217500	-7.909840	8.118860
5.085000	-6.793900	283.911000	-10.535200	0.197755	0.000000	-1.445250	-17.384900	5.246090	-0.848335	2.427850	291.859000	9.505900	0.228601	0.000000	-0.968869	19.162500	-7.878270	8.104830
5.090000	-7.195120	281.702000	-10.753700	0.197972	0.000000	-1.445380	-17.222500	5.203290	-0.787377	1.844820	289.110000	9.711180	0.229092	0.000000	-0.968550	18.903600	-7.864650	8.160130
5.095000	-7.265320	279.480000	-10.665000	0.198567	0.000000	-1.445340	-17.098300	5.082650	-0.611942	2.111490	289.478000	9.741460	0.228538	0.000000	-0.968487	18.903200	-7.799710	8.012550
5.100000	-7.441460	277.778000	-10.932900	0.198407	0.000000	-1.445200	-17.035800	5.054800	-0.659948	2.163810	288.190000	9.654870	0.229147	0.000000	-0.968623	18.856700	-7.781890	8.153200
5.105000	-7.316730	274.445000	-10.307500	0.198566	0.000000	-1.444640	-16.986400	5.030870	-0.600006	1.755030	286.890000	9.757570	0.228814	0.000000	-0.968881	18.855600	-7.736790	8.016920
5.110000	-7.143490	274.626000	-10.722000	0.198910	0.000000	-1.444710	-16.971900	4.965110	-0.510753	1.889200	286.367000	9.618610	0.229420	0.000000	-0.968405	18.682200	-7.651940	8.181480
5.115000	-7.504440	273.746000	-10.721100	0.198981	0.000000	-1.444820	-16.894300	4.892520	-0.489096	1.408480	282.695000	9.951310	0.229417	0.000000	-0.969105	18.651500	-7.627490	8.061060
5.120000	-7.567800	271.148000	-10.715700	0.200005	0.000000	-1.443760	-17.026000	4.875250	-0.209992	1.458630	280.847000	10.311100	0.229019	0.000000	-0.968868	18.461200	-7.644970	7.883760
5.125000	-7.848680	270.402000	-10.852400	0.199541	0.000000	-1.443420	-17.073500	4.757100	-0.335019	1.181460	281.771000	10.144800	0.229567	0.000000	-0.968283	18.364500	-7.600050	8.071210
5.130000	-7.979660	270.564000	-10.839100	0.199402	0.000000	-1.443570	-17.045600	4.727170	-0.371412	1.280390	281.037000	10.048800	0.229092	0.000000	-0.969658	18.700300	-7.606970	7.917420
5.135000	-8.213850	270.975000	-11.153200	0.200648	0.000000	-1.443810	-17.007500	4.669720	-0.037353	1.543820	283.412000	10.171900	0.229244	0.000000	-0.968373	18.488100	-7.637850	8.028360
5.140000	-8.549830	270.066000	-10.652100	0.200817	0.000000	-1.443650	-16.999700	4.575760	0.019583	1.185270	284.350000	10.101800	0.230212	0.000000	-0.968573	18.615400	-7.678000	8.331750
5.145000	-8.784790	271.710000	-10.455700	0.201729	0.000000	-1.443160	-17.240800	4.616830	0.271550	1.104810	284.913000	10.249300	0.230372	0.000000	-0.968864	18.737000	-7.755520	8.388090
5.150000	-8.915130	271.567000	-10.414100	0.201555	0.000000	-1.443240	-17.214500	4.702600	0.221243	0.604917	287.676000	10.040600	0.230954	0.000000	-0.968633	18.865200	-7.831030	8.643720
5.155000	-8.703870	274.693000	-10.098100	0.202614	0.000000	-1.442770	-17.532900	4.692560	0.526248	0.269685	290.951000	9.907980	0.230474	0.000000	-0.968379	19.015100	-7.826510	8.610840
5.160000	-8.548810	278.387000	-10.101500	0.202647	0.000000	-1.443070	-17.681000	4.776630	0.544982	0.058091	295.938000	9.877950	0.231352	0.000000	-0.969054	19.546400	-7.950730	9.023310
5.165000	-8.836190	284.921000	-8.994540	0.203308	0.000000	-1.442120	-18.366700	4.820390	0.773420	-0.412358	301.803000	9.629950	0.231309	0.000000	-0.968826	19.877100	-8.011240	9.202260
5.170000	-9.257390	290.696000	-8.380670	0.203714	0.000000	-1.442190	-18.721400	4.876760	0.922945	0.171574	309.875000	8.791740	0.231974	0.000000	-0.970103	20.789300	-8.213400	9.683220
5.175000	-10.022800	297.755000	-7.993630	0.204860	0.000000	-1.440640	-19.646300	4.920280	1.298330	0.234635	318.661000	7.846700	0.231895	0.000000	-0.970150	21.392100	-8.403300	9.963170
5.180000	-10.516600	306.723000	-7.467640	0.205687	0.000000	-1.440200	-20.376400	4.968380	1.607610	0.347200	327.640000	6.622280	0.232171	0.000000	-0.970685	22.167500	-8.530330	10.372700
5.185000	-10.564300	316.913000	-6.788730	0.206815	0.000000	-1.439260	-21.340400	5.010170	2.038460	0.160444	334.773000	5.088420	0.231982	0.000000	-0.970246	22.508000	-8.697980	10.577300
5.190000	-10.794800	329.715000	-5.708510	0.207340	0.000000	-1.439060	-22.260900	5.120830	2.319730	0.640356	347.224000	2.842950	0.231692	0.000000	-0.970362	23.373800	-8.808660	10.933300
5.195000	-11.013600	343.709000	-4.734710	0.208325	0.000000	-1.438070	-23.540600	5.287180	2.778910	1.008110	358.538000	0.847833	0.231334	0.000000	-0.969376	23.773600	-8.896040	11.213700
5.200000	-11.213400	354.832000	-3.546800	0.208820	0.000000	-1.438070	-24.299200	5.448080	3.067920	0.790783	368.593000	-2.228720	0.231231	0.000000	-0.969486	24.486900	-8.943300	11.565600
5.205000	-10.780000	367.770000	-2.214340	0.209631	0.000000	-1.437180	-25.495100	5.587330	3.504140	0.450798	379.978000	-4.842100	0.231672	0.000000	-0.969665	25.320300	-9.040200	12.151600
5.210000	-10.998600	380.449000	-1.072360	0.210585	0.000000	-1.436130	-26.766700	5.618120	4.009150	1.127700	388.891000	-7.617790	0.231362	0.000000	-0.969347	25.774700	-9.099080	12.377900
5.215000	-10.300000	390.670000	0.419739	0.210440	0.000000	-1.435450	-27.734900	5.803290	4.085550	0.374338	397.827000	-10.078200	0.231054	0.000000	-0.969172	26.316100	-9.068710	12.591100
5.220000	-9.894930	400.306000	2.874570	0.210373	0.000000	-1.435050	-28.566700	5.923530	4.200320	-0.360777	406.394000	-12.405900	0.230746	0.000000	-0.969120	26.879300	-8.996350	12.782000
5.225000	-9.245160	409.226000	4.685690	0.210936	0.000000	-1.434620	-29.362400	5.951230	4.551670	-0.815915	414.435000	-14.983000	0.230464	0.000000	-0.968473	27.153000	-8.925710	12.966500
5.230000	-8.953400	415.555000	7.137940	0.210968	0.000000	-1.434210	-29.975600	5.997540	4.673410	-1.709180	419.092000	-17.844600	0.230500	0.000000	-0.968938	27.673100	-8.866730	13.187700
5.235000	-8.206470	420.875000	9.252080	0.211027	0.000000	-1.434100	-30.390200	6.003380	4.788260	-2.125290	423.874000	-19.881500	0.229605	0.000000	-0.968602	27.854500	-8.744380	12.993100
5.240000	-7.895090	425.266000	11.660600	0.211226	0.000000	-1.433990	-30.745300	5.883920	4.954420	-2.207270	426.555000	-22.009800	0.229080	0.000000	-0.968500	27.987700	-8.586960	12.887800
5.245000	-7.282450	429.900000	13.551400	0.210806	0.000000	-1.433740	-31.173900	5.856610	4.851200	-2.634460	428.149000	-24.351200	0.228975	0.000000	-0.968860	28.255800	-8.542310	12.941400
5.250000	-6.681160	430.226000	15.189200	0.210678	0.000000	-1.433820	-31.153900	5.754080	4.819860	-2.927540	429.032000	-26.292200	0.228101	0.000000	-0.968351	28.101300	-8.414500	12.629000
5.255000	-5.947050	431.718000	17.662600	0.210455	0.000000	-1.433420	-31.421800	5.678930	4.771040	-3.082310	429.680000	-28.774300	0.227565	0.000000	-0.968501	28.210800	-8.238470	12.462400
5.260000	-5.493980	430.249000	19.942800	0.210179	0.000000	-1.433510	-31.269100	5.608590	4.667430	-3.058870	430.049000	-30.641500	0.227276	0.000000	-0.968485	28.227100	-8.121040	12.382500
5.265000	-4.498250	428.999000	21.249300	0.209912	0.000000	-1.433530	-31.149600	5.384550	4.545420	-3.599210	428.288000	-32.348800	0.226989	0.000000	-0.967896	27.870400	-7.940360	12.242300
5.270000	-3.811920	429.010000	22.976900	0.209126	0.000000	-1.433580	-31.118700	5.323730	4.226270	-4.103100	427.380000	-33.962000	0.226433	0.000000	-0.968185	27.944500	-7.754950	12.005700
5.275000	-2.851400	423.175000	25.239800	0.209037	0.000000	-1.433950	-30.526900	5.196040	4.159870	-3.991360	425.798000	-35.730200	0.225511	0.000000	-0.967965	27.742800	-7.445250	11.585400
5.280000	-1.488240	420.560000	27.004300	0.209051	0.000000	-1.433660	-30.443400	5.108550	4.157290	-4.396490	424.096000	-37.277000	0.225118	0.000000	-0.967815	27.575300	-7.221690	11.394600
